<svg id="Layer_1" data-name="Layer 1" xmlns="http://www.w3.org/2000/svg" viewBox="0 0 866.6 1322.1"><title>Atlantic_A_color</title><path d="M241.54,938.58c-5.53,0-7.37-3.68-7.37-9.21L363.23,378.06c1.85-9.22,9.23-9.22,11.07,0L494.15,929.37c0,5.53-1.85,9.21-7.38,9.21ZM475.71,1.92c-22.13,22.13-53.47,42.41-75.6,49.78-7.37,1.84-9.22,3.69-11.06,11.06l-263.67,1110c-20.28,88.5-46.1,105.1-116.16,110.63-5.53,0-9.22,3.69-9.22,9.22v20.28c0,5.53,3.69,9.22,9.22,9.22h252.6c5.53,0,9.22-3.69,9.22-9.22V1292.6c0-5.53-3.69-9.22-9.22-9.22-94,0-103.25-27.66-84.82-105.1l44.26-189.92c1.84-5.52,5.53-9.21,11.06-9.21H496c5.53,0,9.22,3.69,11.06,9.21L556.84,1217c11.06,49.79-7.38,60.85-70.07,66.38-5.53,0-9.22,3.69-9.22,9.22v20.28c0,5.53,3.69,9.22,9.22,9.22H857.38c5.53,0,9.22-3.69,9.22-9.22V1292.6c0-5.53-3.69-9.22-9.22-9.22-57.16-5.53-81.13-14.75-92.19-66.38L486.77,5.6c-1.84-5.53-7.38-7.37-11.06-3.68" fill="#e7131a"/></svg>