<svg id="Layer_1" data-name="Layer 1" xmlns="http://www.w3.org/2000/svg" viewBox="0 0 3214.44 499.33"><title>Atlantic_Text_Black</title><path d="M3056.55,492.27c25.36,0,67.79-30.41,93.12-70.95,8.24-13.31,1.93-27.25-10.75-13.31-15.84,17.1-36.12,32.93-57,31.67-19.65-.63-35.49-30.41-11.42-99.46,35.49-100.09,59.56-111.48,71-112.11,10.79-.64,33,27.88,46.24,31,10.79,2.52,19.66-1.27,24.74-10.76,5.68-10.79,2.52-42.46-50.7-45-55.74-2.56-115.3,62.08-144.45,157.09-28.48,93.13,2.56,131.77,39.28,131.77m-108.3-298.36c-31.07,0-72.87,22.15-112.14,65.87-12.68,14.57-3.16,24.7,8.86,13.94,11.42-10.79,32.31-26.62,43.09-32.93,13.29-8.24,22.18-1.93,18.36,10.12-3.15,9.5-12.68,32.94-19.62,48.77l-43.09,98.84c-12.05,27.88-23.44,55.74-26,63.34-5.71,19.65,4.42,29.78,20.25,29.78,29.78,0,71.61-24.7,111.52-69.06,12.65-14.57,3.15-24.7-8.87-13.94-12.68,11.42-35.49,28.52-46.91,35.49-13.28,8.23-22.8,1.89-18.36-10.13,3.16-8.89,12.68-29.14,19-43.72l43.7-98.83c12.68-29.15,27.25-60.19,29.77-68.42,5.08-19-4.41-29.12-19.62-29.12m27.86-84.26C2993.84,110.91,3011,97,3013.49,78c2.52-19.65-9.5-36.12-27.25-37.38-18.37-1.92-35.46,12.65-38,32.3-2.55,19,9.5,34.83,27.86,36.75m-306.6,314.2,70.95-188.77h51.33c11.38,0,17.09-3.19,19.62-11.42,4.45-10.76,1.89-15.84-9.5-15.84h-51.32l24.7-65.87c3.18-8.86,0-13.31-5.05-13.31h-26.62c-7,0-9.5,1.9-12.65,10.76l-26,68.42h-41.16c-5.71,0-10.13-1.26-13.95,15.84-1.26,8.23.63,11.42,8.24,11.42h36.12l-61.45,160.28c-9.5,24.7-22.81,57-25.34,70.32-3.81,22.17,9.5,31,26,27.85,32.3-5.68,78.55-39.27,119.74-91.86,11.39-15.2,1.9-24.7-9.52-12.65-15.21,14.57-39.91,37.38-55.11,47.51-16.47,10.76-24.7,3.15-19-12.68m-229.33,67.79c29.78,0,71.58-24.7,111.51-69.06,12.65-14.57,3.16-24.7-8.89-13.94-12.65,11.42-35.46,28.52-46.88,35.49-13.91,8.86-23.44,1.89-19-10.76,3.16-8.26,14.57-31.7,21.55-45.61l37.38-75.4c20.25-41.16,24.07-59.55,24.07-74.13,0-27.22-13.95-41.16-42.46-41.16-39.91,0-71.58,31.67-119.72,100.09-13.31,18.36-22.18,32.3-39.94,55.11-5.67,7-10.12,6.34-6.94-1.89l24.7-61.45c11.39-29.15,20.26-54.48,20.26-67.16,0-16.47-7-24.07-24.7-24.07-21.55,0-48.77,11.38-96.28,71.57-17.1,22.18-.63,24.7,5.68,17.76,9.52-9.52,29.78-31,43.72-43.09,13.31-12.68,26-8.23,20.91,6.34-.63,3.79-4.44,14.58-12,33.57L2257.75,468.2c-10.16,25.33,38,31,46.25,12.05,26-59.56,83-134.95,106.4-168.52,34.23-48.8,64-82.36,85.52-82.36,11.42,0,16.47,6.34,16.47,18.36,0,6.34-3.79,20.28-8.87,30.41l-53.21,113.4c-14.55,30.41-29.12,62.09-31.68,70.32-6.34,19.65,4.45,29.78,21.55,29.78M1950.5,430.19c-3.79-27.89,21.54-70.32,42.43-98.83,36.12-47.51,80.47-86.79,109-86.79,19.62,0,29.74,8.24,31.67,20.29,3.78,22.8-33,89.93-65.27,119.08-39.9,36.75-72.21,63.35-94.38,63.35-15.84,0-22.18-6.35-23.44-17.1m134.29-26c-12,22.81-25.34,48.77-28.49,62.72-4.45,22.17,7.6,27.85,24.7,25.33,32.94-4.42,84.26-34.83,123.53-89.31,11.39-15.83.63-24.73-10.12-12.68-12.68,14.58-43.09,40.54-56.41,49.4-17.09,11.42-24.7,8.24-19.62-5.05,2.53-7.6,12-30.41,96.28-215.39,3.82-8.86-8.86-11.42-38-17.1-8.87-1.92-13.94,7.61-29.15,39.28-12.65-13.95-26.59-22.18-52.56-21.55-46.24,1.26-103.28,43.06-150.78,107.07-37.39,51.29-48.77,86.78-41.8,124.79,3.78,22.18,22.17,38,46.87,38.65,34.83,1.26,69.69-31.68,104.52-67.8l22.8-23.43c6.34-6.34,12-2.53,8.24,5.07m-354.73-8.86c-9.53,24.7-22.81,57-25.37,70.32-3.78,22.17,9.53,31,26,27.85,34.19-5.68,83-39.27,125.42-94.38,11.39-15.21,1.9-24.7-9.49-12.68-15.84,15.2-41.2,39.3-57,50.06-16.46,10.76-24.7,3.15-19-12.68L1925.16,14.61c2.53-6.34,1.27-15.21-7.6-14.58-10.12.66-68.42,5.08-90.6,10.16-5,1.26-7.6,8.86-1.89,10.76l34.2,12.68c7,2.52,7.6,5.68,3.18,17.1Zm-157.73,28.49,70.94-188.77h51.3c11.42,0,17.12-3.19,19.65-11.42,4.42-10.76,1.89-15.84-9.5-15.84H1653.4L1678.1,142c3.19-8.86,0-13.31-5-13.31h-26.62c-7,0-9.5,1.9-12.68,10.76l-26,68.42h-41.17c-5.71,0-10.16-1.26-13.95,15.84-1.26,8.23.64,11.42,8.24,11.42H1597l-61.45,160.28c-9.5,24.7-22.81,57-25.36,70.32-3.79,22.17,9.52,31,26,27.85,32.3-5.68,78.55-39.27,119.71-91.86,11.42-15.2,1.93-24.7-9.49-12.65-15.21,14.57-39.91,37.38-55.11,47.51-16.47,10.76-24.7,3.15-19-12.68M1369,111.54c5.08-7.6,10.16-3.81,9.53,1.9-1.92,27.88-5.08,79.18-7.6,124.16-.63,11.42-1.29,24.07-1.93,37.38H1245.42c57.67-76,118.49-155.83,123.53-163.44m-9.49,328.77c-.63,8.9-4.42,14.58-13.94,17.13l-32.31,9.5c-8.86,2.52-12.65,19,1.26,18.36,31.68-1.9,58.3-4.42,72.24-4.42,20.89,0,56.38,4.42,72.84,5.05,14.58.63,13.94-12.65,1.89-15.84-32.3-7.6-45.61-19.62-45-32.3l1.29-26.59c.63-19.66,15.21-307.89,18.36-351,2.53-31.67-33.56-30.41-48.77-11.39l-30.41,38.65c-36.75,46.24-185.61,238.2-257.85,328.13-19.62,24.07-52.56,47.51-77.29,53.85-12,3.19-10.75,15.84,2.56,15.84,10.76,0,42.43-3.79,65.87-3.79s66.53,1.89,77.28,2.53,14.58-11.39.63-15.21c-29.77-8.86-44.32-14.57-44.32-22.81,0-8.86,7-18.36,23.44-41.16,12.65-17.73,43.06-57.67,76.66-102h143.15c-3.15,60.79-7,124.79-7.6,137.44M822.27,221.77C833,222.4,838.1,235.08,833,249c-13.29,39.27-59.53,72.21-93.76,80.44,32.3-85.52,63.34-108.33,83-107.69M810.85,421.32c8.23-13.31,1.92-27.25-10.76-13.31-15.83,17.1-37.38,35.49-59.56,31-15.2-2.52-29.15-28.49-7-93.12,53.22-2.53,115.93-32.93,131.77-83,13.31-43.06-15.21-59.52-38-60.16-55.14-2.55-116.6,61.46-145.71,157.73-28.52,93.13,3.15,131.77,38,131.77,25.33,0,67.76-32.94,91.2-70.95M551.76,19.68c4.45-10.75-34.19-23.43-40.53-10.12L496,40,409.87,283.22,342.71,467.57c-11.39,30.41,31.67,32.3,41.17,13.94C449.78,358,474.48,330.09,498.55,295.9c27.88-40.57,53.85-64.64,72.24-64.64,13.91,0,22.14,7.6,22.14,24.73,0,22.78-10.76,58.27-32.3,118.46-28.49,78.54-39.28,99.46-48.77,100.09-8.87.63-27.89-22.81-38-25.33-10.76-2.56-19.66,1.26-24.7,10.76-5.08,8.86-1.9,37.38,41.16,39.27,51.33,2.52,95-50,125.43-134.29,20.91-57,26-86.18,26-107.07,0-40.53-19-59.55-50.06-59.55-36.09,0-66.5,27.25-104.51,79.81-17.76,24.73-40.57,59.56-50.7,74.76-5.71,7.6-10.12,6.34-7-1.89l26.63-68.42ZM132.4,437.16c-3.16,8.86-8.24,17.73-20.29,21.54-20.25,6.34-26.59,7-39.27,10.13-19,4.45-15.84,20.28-2.53,19.65,24.07-1.29,55.11-4.44,79.82-4.44,30.41,0,84.25,2.52,92.49,3.15,15.2,1.29,17.1-17.1,4.44-19-8.86-1.26-23.43-3.79-37.38-5.71-16.46-1.89-21.54-8.86-17.73-22.18,8.24-22.14,104.52-302.17,124.17-359.81,29.78,3.79,55.74,6.34,72.84,7.61,53.84,3.15,105.17-1.9,140-76.66,3.18-7-15.21-7-18.36-.63-16.47,34.83-46.88,46.25-101.36,44.35C356,53.25,245.17,22.84,162.18,22.84,58.26,22.84,0,86.84,0,162.21c0,42.46,27.86,69.68,65.24,68.42,18.39-.63,33-9.5,36.12-27.22,2.52-15.21-8.24-24.71-23.44-21.55-36.75,7.6-49.4-17.73-49.4-36.75,0-46.88,39.9-81.7,123.53-81.7,21.51,0,63.34,5,107.67,10.12C203.34,242.68,146.34,399.15,132.4,437.16" transform="translate(0 0)"/></svg>